# xmcd CD database file
#
# Track frame offsets:
#	150
#	1404
#	15377
#	32077
#	54643
#	60210
#	70925
#	83646
#	93073
#	102071
#	107852
#	120978
#	126587
#	142718
#	147116
#	150587
#	166222
#	175330
#	182362
#	190052
#	200861
#	223285
#	236020
#	243218
#	255572
#
# Disc length: 3483
# Revision: 1
# Processed by: cddbd v1.5.2PL0 Copyright (c) Steve Scherf et al.
# Submitted via: cddb.el 1.0 (Emacs 24.3.50.1)
#
DISCID=460d9919
DTITLE=Various Artist - Classroom Projects
DYEAR=2013
DGENRE=Folk
TTITLE0=Robert Gittings - Intro
TTITLE1=Chelmsford County High School Folk Group - Portland Town
TTITLE2=Heslington Primary School - Examples of 12 note melodies
TTITLE3=Sounds And Silence - Music For Cymbals
TTITLE4=The Searching Years - Puppets
TTITLE5=Heslington Primary School - Autumn
TTITLE6=The Small Choir Of St Brandon's School - Bright Eyes
TTITLE7=Christopher Tophill - The Song Of The Shadows
TTITLE8=Sounds And Silence - An Aleatory Game
TTITLE9=The Searching Years - Action Beat
TTITLE10=The Lyttle Folk - A' Soalin'
TTITLE11=Searching Years - Little Henrietta
TTITLE12=Sounds And Silence - Musique Concrete
TTITLE13=Sounds And Silence - Alleluia
TTITLE14=Jill Whitehead - Duet For Two Flutes
TTITLE15=The Nick Nack Kids - Strawberry Fair
TTITLE16=Hutton School Choir - Busy Streets
TTITLE17=Rhoda Ashfield - Piece For Oboe And Piano
TTITLE18=The Searching Years - Piece For String Quartet
TTITLE19=The Lyttle Folk - Jimmy Whalen
TTITLE20=Sounds And Silence - The Lyke-Wake Dirge
TTITLE21=Shirley Salzedo - 1st Movement Of Sonata In A
TTITLE22=Peter Brewis - The Lonely Coast
TTITLE23=Hutton School Choir - Don't Drink And Drive
TTITLE24=Graeme Quinton-Jones - Humoresque
EXTD=
EXTT0=
EXTT1=
EXTT2=
EXTT3=
EXTT4=
EXTT5=
EXTT6=
EXTT7=
EXTT8=
EXTT9=
EXTT10=
EXTT11=
EXTT12=
EXTT13=
EXTT14=
EXTT15=
EXTT16=
EXTT17=
EXTT18=
EXTT19=
EXTT20=
EXTT21=
EXTT22=
EXTT23=
EXTT24=
PLAYORDER=
